<svg xmlns="http://www.w3.org/2000/svg" viewBox="0 0 500 500"><g id="freepik--Floor--inject-2"><polygon points="66.73 420.76 112.55 420.51 158.37 420.43 250 420.26 341.63 420.43 387.45 420.51 433.27 420.76 387.45 421 341.63 421.09 250 421.26 158.37 421.09 112.55 421 66.73 420.76" style="fill:#263238"></polygon></g><g id="freepik--Shadows--inject-2"><ellipse cx="86.08" cy="456.14" rx="44.28" ry="8.5" style="fill:#ebebeb"></ellipse><ellipse cx="250" cy="455.47" rx="160.45" ry="15.73" style="fill:#ebebeb"></ellipse></g><g id="freepik--Character--inject-2"><polygon points="237.66 324.43 240.25 339.94 257.76 434.55 260.59 434.55 247.85 339.94 245.97 324.43 237.66 324.43" style="fill:#c7c7c7"></polygon><polygon points="245.97 324.43 237.66 324.43 240.25 339.94 247.85 339.94 245.97 324.43" style="fill:#a6a6a6"></polygon><polygon points="182.64 434.55 185.47 434.55 202.99 339.94 205.57 324.43 197.27 324.43 195.38 339.94 182.64 434.55" style="fill:#c7c7c7"></polygon><polygon points="197.27 324.43 195.38 339.94 202.99 339.94 205.57 324.43 197.27 324.43" style="fill:#a6a6a6"></polygon><polygon points="130.1 434.55 132.92 434.55 150.44 339.94 153.03 324.43 144.72 324.43 142.84 339.94 130.1 434.55" style="fill:#c7c7c7"></polygon><polygon points="142.84 339.94 150.44 339.94 153.03 324.43 144.72 324.43 142.84 339.94" style="fill:#a6a6a6"></polygon><polygon points="134.58 331.72 262.95 331.72 262.95 318.19 214.89 318.19 198.74 204.22 139.47 204.22 134.58 331.72" style="fill:#c7c7c7"></polygon><polygon points="142.06 318.19 262.95 318.19 262.95 331.72 141.57 331.72 142.06 318.19" style="fill:#dbdbdb"></polygon><polygon points="134.58 331.72 141.57 331.72 146.13 204.22 139.47 204.22 134.58 331.72" style="fill:#dbdbdb"></polygon><path d="M256.35,452.57c-2.49.24-70.46-15.95-72.6-18.15-.27-.25,1.07-6.43,3-14.85l0-.17c1.23-5.34,21-48.54,21-48.54l44.05,12.29-20,40.08s8.29,6,15.4,11.67c0,0,0,0,0,0,4.39,3.49,8.18,6.63,9,7.64C258.36,445.21,258.85,452.35,256.35,452.57Z" style="fill:#ad6359"></path><path d="M256.35,452.57c-2.49.24-70.46-15.95-72.61-18.15-.26-.25,1.08-6.42,3-14.85l0-.16c.45-2,3.5-9.25,7.13-17.57,7.25,2,33.24,9,42.68,11.89l-4.74,9.5s8.29,6,15.4,11.67c0,0,0,0,0,0,4.39,3.49,8.18,6.63,9,7.64C258.36,445.22,258.85,452.36,256.35,452.57Z" style="fill:#ebebeb"></path><path d="M256.58,452.89c-2.57.23-70.59-16.15-72.79-18.41-.84-.86.67-11.59,4.39-23L232,422.13s22.39,17.72,24.54,20.46S259.14,452.67,256.58,452.89Z" style="fill:#FFC727"></path><path d="M256.26,449.94c-11.34-3-57.34-14.16-68.77-16.29-.1,0-.11.05,0,.08,11.17,3.24,57.26,14,68.74,16.4C256.45,450.18,256.5,450,256.26,449.94Z" style="fill:#263238"></path><path d="M252.77,439.09a9.4,9.4,0,0,0-7.49,1.15,9.12,9.12,0,0,0-4,5.47c0,.07.12.1.14,0a10.9,10.9,0,0,1,11.34-6.5A.08.08,0,0,0,252.77,439.09Z" style="fill:#263238"></path><path d="M235.32,424.13c-4.55-1.16-10.23-.82-14,2.23-.14.12,0,.32.18.28a65.48,65.48,0,0,1,13.73-1.93A.29.29,0,0,0,235.32,424.13Z" style="fill:#263238"></path><path d="M238.51,426.35c-4.54-1.16-10.22-.82-14,2.23-.14.12,0,.32.18.28a65.48,65.48,0,0,1,13.73-1.93A.29.29,0,0,0,238.51,426.35Z" style="fill:#263238"></path><path d="M241.71,428.58c-4.55-1.17-10.23-.83-14,2.22-.14.12,0,.32.18.29a64.19,64.19,0,0,1,13.73-1.93A.3.3,0,0,0,241.71,428.58Z" style="fill:#263238"></path><path d="M244.9,430.8c-4.55-1.16-10.23-.83-14,2.22-.15.12,0,.32.17.29a64.28,64.28,0,0,1,13.73-1.93A.3.3,0,0,0,244.9,430.8Z" style="fill:#263238"></path><path d="M193,423.52c-5.13-1.21-7,6.75-1.9,8S198.13,424.74,193,423.52Z" style="fill:#263238"></path><path d="M243.19,413.14c-1.85-2.47-5.21-1.3-7.12.35a24.6,24.6,0,0,0-6.95,10.67.12.12,0,0,0,.11.16c0,.35.34.72.73.57,3.79-1.47,8-2.56,11.25-5.15C243.1,418.23,244.93,415.48,243.19,413.14Zm-7.94,8.35c-1.85.77-3.72,1.44-5.54,2.27,1.37-2.07,2.63-4.2,4.2-6.14a27.77,27.77,0,0,1,2.41-2.68c1.36-1.26,6.75-4,6,1.07C241.92,418.81,237.45,420.58,235.25,421.49Z" style="fill:#263238"></path><path d="M217.37,423.12c3.83,1.57,8.2,1.42,12.25,1.76a.57.57,0,0,0,.54-.75c.07,0,.12-.11.06-.19a24.56,24.56,0,0,0-9.69-8.27c-2.29-1-5.84-1.22-6.92,1.68C212.59,420.08,215.14,422.21,217.37,423.12Zm-2.13-3.26c-2.14-4.66,3.81-3.56,5.46-2.72a26,26,0,0,1,3.07,1.88c2.06,1.42,3.87,3.1,5.77,4.71-2-.29-4-.4-6-.61C221.21,422.86,216.42,422.43,215.24,419.86Z" style="fill:#263238"></path><path d="M235.78,418,189,405.48s41.11-85.26,37.79-90c-1.66-2.34-45.5-4.32-59.1-16.57-17.66-15.91-4.81-39-4.81-39h49s-.89,10.23,1,11.83c1.23,1.06,59.45,7.71,65.28,27.6C285.3,323.73,235.78,418,235.78,418Z" style="fill:#37474f"></path><path d="M236.6,411.14a30,30,0,0,0-3.84-1.45c-1.36-.47-2.71-.94-4.08-1.39-2.69-.88-5.39-1.72-8.1-2.5-5.48-1.58-11-3.13-16.47-4.56-2.87-.75-9-2.37-9.41-2.32-.19,0-.23.34-.06.4,5.32,1.93,10.73,3.6,16.13,5.28s10.81,3.33,16.28,4.74c1.52.39,3,.74,4.57,1.11a34.84,34.84,0,0,0,4.84,1.07C236.62,411.53,236.77,411.23,236.6,411.14Z" style="fill:#263238"></path><path d="M235.29,311.72c-1-.87-2.43-1-3.66-1.26l-21.11-4.19c-6.58-1.31-13.2-2.5-19.75-4-5.42-1.22-10.93-2.8-15.56-5.9A22.91,22.91,0,0,1,166,283.5a40.74,40.74,0,0,1-.76-16.2c.16-1.31.44-2.62.73-3.91,0-.1-.14-.14-.16,0-2.09,10-2.6,21.65,4.69,29.88,3.55,4,8.52,6.45,13.62,8.09,5.75,1.85,11.79,2.82,17.71,4l21.11,4.17c3.39.67,6.83,1.21,10.18,2a3.52,3.52,0,0,1,1.82.87,2.64,2.64,0,0,1,.23,2.46c-.39,1.66-.89,3.3-1.42,4.92-4.25,13.07-34.08,75-34.89,76.42-.08.15.15.27.24.13,6.83-11.38,29.06-59.19,33.72-71.53a79.82,79.82,0,0,0,3.07-9.63C236.12,314,236.3,312.63,235.29,311.72Z" style="fill:#263238"></path><path d="M250.57,388l-31-49.8c5-12,8.21-21.19,7.18-22.64-.81-1.14-11.57-2.2-24-4.39L171,259.92h40.95s-.89,10.23,1,11.83c1.23,1.07,59.45,7.71,65.28,27.6C282.68,314.78,264.52,358.17,250.57,388Z" style="fill:#263238"></path><path d="M326.34,457.62c-2.4.73-72.23-1.6-74.77-3.33-.31-.19-.23-6.51,0-15.16V439c.14-5.47-.15-52.33-.15-52.33l43.72.94,1.36,46.17s9.31,4.21,17.41,8.37l0,0c5,2.54,9.33,4.86,10.32,5.7C326.84,450,328.74,456.91,326.34,457.62Z" style="fill:#ad6359"></path><path d="M326.34,457.62c-2.4.73-72.23-1.6-74.77-3.34-.31-.18-.23-6.5,0-15.14V439c0-.38,0-.77,0-1.16s0-.56,0-.84,0-.83,0-1.25c0-3.65,0-9.56,0-16l44.54,1,.38,13s9.31,4.22,17.41,8.37l0,0c5,2.55,9.34,4.86,10.32,5.7C326.83,450,328.74,456.91,326.34,457.62Z" style="fill:#ebebeb"></path><path d="M326.62,457.9c-2.47.73-72.39-1.78-75-3.56-1-.67-1.66-11.49-.27-23.37l45.07,1.67s25.47,12.91,28.12,15.17S329.09,457.17,326.62,457.9Z" style="fill:#FFC727"></path><path d="M325.72,455.06c-11.71-.7-59-2.45-70.64-2.26-.09,0-.09.06,0,.07,11.59,1,58.9,2.32,70.63,2.39C326,455.26,326,455.08,325.72,455.06Z" style="fill:#263238"></path><path d="M320.14,445.13a9.43,9.43,0,0,0-7.11,2.61,9.13,9.13,0,0,0-2.85,6.16c0,.07.13.08.15,0a10.88,10.88,0,0,1,9.81-8.63A.08.08,0,0,0,320.14,445.13Z" style="fill:#263238"></path><path d="M300.06,433.94c-4.68-.23-10.18,1.23-13.24,5-.11.15.09.31.24.25a64.61,64.61,0,0,1,13.06-4.63A.29.29,0,0,0,300.06,433.94Z" style="fill:#263238"></path><path d="M303.63,435.48c-4.68-.23-10.18,1.23-13.23,5-.12.15.08.31.23.25a64.82,64.82,0,0,1,13.06-4.63A.29.29,0,0,0,303.63,435.48Z" style="fill:#263238"></path><path d="M307.21,437c-4.69-.23-10.19,1.23-13.24,5-.12.15.09.32.23.25a64.27,64.27,0,0,1,13.07-4.62A.3.3,0,0,0,307.21,437Z" style="fill:#263238"></path><path d="M310.78,438.57c-4.69-.24-10.19,1.22-13.24,5-.12.14.09.31.23.24a64.88,64.88,0,0,1,13.07-4.62A.3.3,0,0,0,310.78,438.57Z" style="fill:#263238"></path><path d="M258.47,441.77c-5.27-.17-5.55,8-.27,8.18S263.74,442,258.47,441.77Z" style="fill:#263238"></path><path d="M305.58,421.61c-2.3-2.06-5.36-.24-6.9,1.75A24.58,24.58,0,0,0,294,435.2a.12.12,0,0,0,.14.14.57.57,0,0,0,.83.41c3.42-2.19,7.35-4.11,10-7.28C306.51,426.61,307.76,423.55,305.58,421.61Zm-6.11,9.76c-1.66,1.12-3.36,2.15-5,3.33a73.77,73.77,0,0,1,2.9-6.86,26.75,26.75,0,0,1,1.82-3.1c1.08-1.51,5.82-5.27,6.11-.15C305.47,427.41,301.44,430,299.47,431.37Z" style="fill:#263238"></path><path d="M282.27,436.53c4.06.77,8.32-.24,12.35-.72A.57.57,0,0,0,295,435a.12.12,0,0,0,0-.2,24.71,24.71,0,0,0-11.15-6.18c-2.45-.56-6,0-6.44,3C277,434.5,279.9,436.07,282.27,436.53Zm-2.74-2.78c-3-4.13,3-4.24,4.82-3.75a27.31,27.31,0,0,1,3.38,1.23,73.66,73.66,0,0,1,6.58,3.47c-2,.11-4,.4-5.95.58C286,435.51,281.2,436,279.53,433.75Z" style="fill:#263238"></path><path d="M299.14,427.2l-49.3-1.45s3.13-84-.59-89.08c-5-6.74-77-8.73-91.86-30.67-13.31-19.71-.78-46.67-.78-46.67h54.63a112.46,112.46,0,0,1-5.57,17s65.39,14.09,83.22,34.81C300.91,325.16,299.14,427.2,299.14,427.2Z" style="fill:#37474f"></path><path d="M215.38,272.92a26.45,26.45,0,0,0-4.67,1.34c-1.58.55-3.15,1.19-4.67,1.88a88.7,88.7,0,0,0-8.79,4.63c-.08.05,0,.17.09.13,3-1.45,6.09-2.74,9.18-4l4.47-1.77a47.87,47.87,0,0,0,4.51-1.84C215.69,273.23,215.6,272.88,215.38,272.92Z" style="fill:#263238"></path><path d="M212.51,259.35c-.7,2.47-1.32,5-2.11,7.41-.36,1.12-.71,2.27-1.17,3.35-.39.92-1,2-2,2.14-1.25.2-1.57-.87-1.44-1.89s.47-2.27.73-3.38c.3-1.29.6-2.57.88-3.87.13-.64.27-1.29.4-1.93,0-.17.19-1.41.29-1.76,0,0,0,.06.07.05h0s.08,0,.08-.06,0-.12-.06-.19a.09.09,0,0,0-.11,0c-.24.12-.27.44-.35.68-.22.62-.44,1.25-.65,1.88-.38,1.18-.75,2.36-1.08,3.55s-.67,2.39-1,3.58a5.67,5.67,0,0,0-.33,2.76,2.11,2.11,0,0,0,1.91,1.65c0,.08-.1.16-.14.24-.11.24-.2.5-.3.75s-.2.51-.28.77a2.87,2.87,0,0,0-.08.38c0,.15,0,.29,0,.43a.21.21,0,0,0,.38.15c.07-.12.17-.22.25-.34a1.92,1.92,0,0,0,.19-.41c.09-.25.17-.49.24-.75s.16-.5.21-.75,0-.31.06-.46a2.75,2.75,0,0,0,1.45-.5,4.88,4.88,0,0,0,1.56-2.23c.41-1,.73-2.1,1-3.15a46.59,46.59,0,0,0,1.83-8A.23.23,0,0,0,212.51,259.35Z" style="fill:#263238"></path><path d="M179.87,264.48c-.26,1.23-.44,2.47-.77,3.69s-.67,2.38-1.1,3.54a12.6,12.6,0,0,1-1.62,3.16,11.81,11.81,0,0,1-2.49,2.4,20.41,20.41,0,0,1-5.95,3.08,28.6,28.6,0,0,1-3.27.86c-.58.11-1.17.19-1.75.25a3.73,3.73,0,0,0-1.41.28.29.29,0,0,0,0,.49,5,5,0,0,0,2.59.16,18.83,18.83,0,0,0,2.78-.41,20.13,20.13,0,0,0,5.29-2,16.52,16.52,0,0,0,4.47-3.45,12.41,12.41,0,0,0,2.49-5.05,25.43,25.43,0,0,0,1-6.93A.12.12,0,0,0,179.87,264.48Z" style="fill:#263238"></path><path d="M258.62,369.19q-.37-11.64-1.24-23.27c-.14-1.91-.27-3.82-.45-5.73a18.05,18.05,0,0,0-.83-4.37c-1.05-2.94-3.42-4.48-6.32-5.3-3.43-1-7-1.6-10.47-2.28s-7.15-1.31-10.73-1.92c-7.26-1.23-14.54-2.39-21.76-3.82A175.86,175.86,0,0,1,185.53,317c-6.39-2.14-12.93-4.74-18-9.37-10.82-10-10.75-26.11-9-39.57.25-1.9.54-3.8.83-5.69,0-.1-.14-.14-.15,0-1.11,7.58-2.36,15.2-1.83,22.88A37.4,37.4,0,0,0,163,303.17c3.6,5.51,9.06,9.16,15,11.77a121.14,121.14,0,0,0,20.27,6.5c14.32,3.44,29,5.16,43.4,8.07q2.67.54,5.33,1.14a22.2,22.2,0,0,1,4.79,1.43c3.24,1.57,4,4.81,4.36,8.13.72,7.72,1.13,15.48,1.46,23.22.66,15.61.79,31.28.3,46.9-.06,1.93-.13,3.85-.21,5.78,0,.17.26.16.27,0C258.88,400.48,259.14,384.84,258.62,369.19Z" style="fill:#263238"></path><path d="M297,421.21a29.64,29.64,0,0,0-4.08-.47c-1.43-.12-2.87-.25-4.3-.35-2.82-.19-5.65-.35-8.47-.44-5.69-.19-11.39-.35-17.08-.39-3,0-9.34-.09-9.7.06-.17.07-.13.38,0,.4,5.64.57,11.29.86,16.94,1.16s11.29.59,16.95.62c1.56,0,3.13,0,4.69,0a34.22,34.22,0,0,0,5-.15C297.13,421.58,297.2,421.25,297,421.21Z" style="fill:#263238"></path><path d="M210,213.28c4.93,21.08,6.23,36.34,12.21,40.28,4.83,3.17,11.61,5.4,18.58,6.95a172.89,172.89,0,0,0,22.6,3.23c2.34.2,4.29.32,5.67.42,3.42.22,9-22.36,6.59-25.11-.56-.63-2.81-1.12-6-1.52-10.64-1.34-31.59-1.65-32.84-2.84s-10-15.6-17.67-29.06C211.9,192.74,206.9,199.88,210,213.28Z" style="fill:#ad6359"></path><path d="M262.24,261.88a81.88,81.88,0,0,0,10.17,3.75c2.76.69,10.77,2.47,11.84-.5.73-2-3.86-3.63-7.08-4.83-1.7-.64-3.82-2.31-3.37-3.4.79-1.91,5.16-.18,8.05,1.36,5.59,3,13.08,8.42,16.32,5.53,1.23-1.1-.31-3-2.53-4.75,3.57,2.06,7.34,3.71,8.75,2.55a1.84,1.84,0,0,0,.32-2.51,2.43,2.43,0,0,0,2.67-.52c1.09-1.22.47-2.95-.84-4.7a1.34,1.34,0,0,0,1-.71c2.26-3.74-10.12-13.79-14.3-14.62-12.31-2.45-25.25-.91-25.25-.91C263.35,241.63,262.23,261.87,262.24,261.88Z" style="fill:#ad6359"></path><path d="M279.76,249.84a20,20,0,0,1,8.26,2.84c2.92,1.85,5.28,4.43,8,6.55.07.06,0,.17-.09.11-1.28-1.1-2.68-2.07-4-3.12s-2.57-2.09-3.93-3a19.72,19.72,0,0,0-8.24-3.31S279.73,249.84,279.76,249.84Z" style="fill:#263238"></path><path d="M281.84,244.58a49.9,49.9,0,0,1,9.59,2.93c3.32,1.54,6,4.16,8.57,6.67q2.36,2.26,4.59,4.62c.06.07,0,.18-.09.12q-4-3.9-8.16-7.55a26,26,0,0,0-8.84-5.12c-1.86-.64-3.76-1.12-5.67-1.61C281.8,244.63,281.81,244.57,281.84,244.58Z" style="fill:#263238"></path><path d="M285.1,239.93c3.14.52,5.88,1,8.7,2.54a44.15,44.15,0,0,1,8.68,6.94c1.43,1.41,2.8,2.86,4.15,4.34.05.06-.05.16-.11.1a103,103,0,0,0-9.85-9.06,20.48,20.48,0,0,0-5.44-3.26A37,37,0,0,0,285.1,240S285.09,239.93,285.1,239.93Z" style="fill:#263238"></path><path d="M257.88,264.61l9.88-27.88s-28.54-1.2-30.38-2.39S226.11,215.83,219,204.19c-5.62-9.14-12.58-8.48-9.4,9.93,3.36,19.4,6.16,34.68,11,39.13C228.79,260.78,257.88,264.61,257.88,264.61Z" style="fill:#FFC727"></path><g style="opacity:0.1"><path d="M214,198.9l-3-.06A2.94,2.94,0,0,1,214,198.9Z"></path><path d="M219.83,205.61l-11.05-.2a17.1,17.1,0,0,1,.33-3.14l8.66.15a21.19,21.19,0,0,1,1.2,1.78Z"></path><path d="M223.8,212.29,209.24,212c-.16-1.13-.27-2.18-.35-3.16l13,.24Z"></path><path d="M227.7,219l-17.34-.32c-.18-1-.37-2.09-.56-3.16l16,.29Z"></path><path d="M231.61,225.64l-20.06-.37c-.19-1-.38-2.09-.58-3.16l18.77.35C230.39,223.57,231,224.63,231.61,225.64Z"></path><path d="M235.74,232.32l-22.9-.42c-.21-1-.42-2.08-.63-3.16l21.5.39C234.48,230.39,235.17,231.47,235.74,232.32Z"></path><path d="M267.76,236.73l-1,2.76-52.45-1c-.25-1-.5-2.07-.75-3.16l42.42.77h0C262.3,236.5,267.76,236.73,267.76,236.73Z"></path><path d="M265.56,242.93l-1.1,3.12-48.24-.88c-.33-1-.66-2-1-3.16Z"></path><path d="M263.24,249.49l-1.11,3.13-42.78-.78a18.7,18.7,0,0,1-1.77-3.19Z"></path><path d="M260.91,256.05l-1.1,3.13-28.68-.53a44.19,44.19,0,0,1-7.58-3.29Z"></path><path d="M258.59,262.61l-.71,2s-5.72-.76-12.81-2.25Z"></path></g><path d="M257.34,250.07c.79-2.19,1.55-4.38,2.29-6.59s1.34-4.61,2.17-6.86c0-.1-.12-.13-.15,0-.8,2.25-1.84,4.42-2.69,6.65s-1.64,4.33-2.43,6.52c-1.58,4.4-3.19,8.82-4.46,13.32,0,.13.17.22.23.09C254.18,258.89,255.76,254.46,257.34,250.07Z" style="fill:#263238"></path><path d="M235.15,259.91c-6-1.73-11.62-4-14.56-6.65-4.86-4.46-7.66-19.73-11-39.14C207,199.39,211,196,215.54,200Z" style="fill:#263238"></path><path d="M217.14,271.72c-1.69,1.26-66.57-.56-66.83-1-.7-1.28,19.22-59.83,47.59-77.15,5-3,12.33-.52,15.45,2.13,1.56,1.32,5.87,11.1,6.2,19S218.2,270.92,217.14,271.72Z" style="fill:#FFC727"></path><g style="opacity:0.1"><path d="M215.34,198.93l-24.13-.44c1.27-1.11,2.57-2.14,3.88-3.08l18.33.33A12.67,12.67,0,0,1,215.34,198.93Z"></path><path d="M217.87,205.58l-33.2-.61q1.43-1.6,2.92-3.09l29.21.53C217.18,203.41,217.54,204.48,217.87,205.58Z"></path><path d="M219.34,212.21l-40-.73c.8-1.06,1.62-2.1,2.44-3.11l37,.68C219,210.1,219.2,211.16,219.34,212.21Z"></path><path d="M219.59,218.81,174.72,218c.69-1.05,1.4-2.09,2.12-3.11l42.75.77C219.6,216.5,219.6,217.56,219.59,218.81Z"></path><path d="M219.55,222.27c0,1,0,2-.05,3.15l-48.89-.89c.62-1.05,1.25-2.09,1.9-3.12Z"></path><path d="M219.42,228.87q0,1.53-.09,3.15l-52.45-1c.57-1,1.14-2.08,1.74-3.12Z"></path><path d="M219.22,235.47c0,1-.06,2.09-.09,3.15l-55.66-1c.51-1,1-2.07,1.58-3.12Z"></path><path d="M219,242.07l-.12,3.15-58.58-1.07c.48-1,1-2.07,1.47-3.12Z"></path><path d="M218.75,248.67c0,1.07-.08,2.12-.13,3.15l-61.23-1.12c.44-1,.9-2.06,1.37-3.12Z"></path><path d="M218.46,255.27c-.05,1.08-.1,2.13-.16,3.14l-63.59-1.15c.39-1,.81-2,1.25-3.13Z"></path><path d="M218.11,261.87c-.06,1.12-.13,2.18-.2,3.15l-65.64-1.21c.34-1,.72-2,1.13-3.13Z"></path><path d="M217.65,268.47a17.53,17.53,0,0,1-.44,3.14l-66.91-1.23a25.66,25.66,0,0,1,.83-3.13Z"></path></g><path d="M219.11,173.39c0,3.9,2.77,7.06,6.19,7.06s6.19-3.16,6.19-7.06-2.77-7-6.19-7S219.11,169.49,219.11,173.39Z" style="fill:#FFC727"></path><ellipse cx="223.99" cy="173.64" rx="6.89" ry="7.85" style="fill:#c7c7c7"></ellipse><path d="M212,205.15c-3.76.67-9.79-5.36-12-10.09-.15-.32,1.88-12.82,2-15.34,0-.52,15.58,4.74,15.58,4.74a40,40,0,0,0-2.08,9.59C215.49,194.41,215.64,204.51,212,205.15Z" style="fill:#ad6359"></path><path d="M215.55,195.08s0,.11,0,.17h-.08a8.9,8.9,0,0,1-1.55,0c-8.58-.69-10.87-11.41-11.44-15.52,2.65.52,15.09,4.73,15.09,4.73A40,40,0,0,0,215.5,194c0,.12,0,.24,0,.35A3.85,3.85,0,0,0,215.55,195.08Z" style="fill:#263238"></path><path d="M204.3,159.87c-2.9,5.1-3.55,21.56-.45,26,4.5,6.38,13.63,8.94,19.49,3.13,5.69-5.63,6.16-27.1,2.53-31.28C220.53,151.52,208.58,152.34,204.3,159.87Z" style="fill:#ad6359"></path><path d="M217.86,173s-.09.05-.09.09c0,1.11-.22,2.38-1.24,2.71a0,0,0,0,0,0,.06C217.77,175.71,218,174,217.86,173Z" style="fill:#263238"></path><path d="M216.92,171.77c-1.78-.22-2.08,3.35-.43,3.55S218.41,172,216.92,171.77Z" style="fill:#263238"></path><path d="M224,173.65s.08.06.08.1c-.13,1.11-.09,2.39.88,2.84,0,0,0,.07,0,.06C223.69,176.38,223.65,174.67,224,173.65Z" style="fill:#263238"></path><path d="M225,172.58c1.79,0,1.63,3.59,0,3.58S223.54,172.56,225,172.58Z" style="fill:#263238"></path><path d="M215.65,170c.49-.09.94-.24,1.42-.37a2.39,2.39,0,0,0,1.38-.66.75.75,0,0,0,0-.92,1.89,1.89,0,0,0-1.87-.36,2.79,2.79,0,0,0-1.69,1.06A.81.81,0,0,0,215.65,170Z" style="fill:#263238"></path><path d="M226.57,170.89a13.41,13.41,0,0,1-1.39-.48,2.46,2.46,0,0,1-1.32-.77.76.76,0,0,1,.12-.92,1.88,1.88,0,0,1,1.89-.19,2.69,2.69,0,0,1,1.59,1.19A.8.8,0,0,1,226.57,170.89Z" style="fill:#263238"></path><path d="M215.68,183.11c.24.28.48.66.88.72a2.94,2.94,0,0,0,1.21-.17s.07,0,0,.06a1.49,1.49,0,0,1-1.45.48,1.18,1.18,0,0,1-.79-1C215.56,183.08,215.65,183.07,215.68,183.11Z" style="fill:#263238"></path><path d="M217.12,179.89a3.77,3.77,0,0,0,2.37,1.89,4.77,4.77,0,0,0,1.35.18h.26l.25,0a.28.28,0,0,0,.24-.23h0a.21.21,0,0,0,0-.11h0v-.1c.09-.84.12-2.15.12-2.15.3.19,1.82,1,1.84.59a56.28,56.28,0,0,0-.51-11.52.1.1,0,0,0-.2,0c-.23,3.55.17,7.12,0,10.69a6.52,6.52,0,0,0-1.73-.68c-.13,0,0,2.51-.08,2.89a.1.1,0,0,1,0,0,5.25,5.25,0,0,1-3.8-1.54C217.16,179.73,217.06,179.8,217.12,179.89Z" style="fill:#263238"></path><path d="M220.38,181.48a4.46,4.46,0,0,1-1.91,1.24,2,2,0,0,1-1.22,0c-.87-.3-.82-1.12-.6-1.8a4.78,4.78,0,0,1,.48-1A5.82,5.82,0,0,0,220.38,181.48Z" style="fill:#263238"></path><path d="M218.47,182.72a2,2,0,0,1-1.22,0c-.87-.3-.82-1.12-.6-1.8A2.08,2.08,0,0,1,218.47,182.72Z" style="fill:#ff99ba"></path><path d="M203.2,172c3.82,0,4.64-6.9,4.64-6.9s6.57-1,7.57-5.94c0,0,6.18,4,11.1,2.32s4.29-7.82,3.75-9c-1.25-2.72-5.35.71-5.35.71s-6.13-3.79-13.14-3.17c-5.7.51-8.62,5.84-8.62,5.84s-3.06.62-4.07,2.75S200.77,172,203.2,172Z" style="fill:#263238"></path><path d="M206.29,165.15c5.07.73,8.47-2.61,9.25-7.46a.05.05,0,0,1,.1,0c-.19,4.52-4.47,9.52-9.4,7.68C206.12,165.33,206.16,165.13,206.29,165.15Z" style="fill:#263238"></path><path d="M203.29,155.79c.06,0,.09.08,0,.1-1.43.65-3.06,1.12-4.07,2.41-1.22,1.55-1,3.6-.55,5.38.66,2.76,2,6.35,4.49,8,.14.1,0,.3-.15.22-2.93-1.77-4.6-6.43-5-9.67C197.65,158.58,199.93,156.54,203.29,155.79Z" style="fill:#263238"></path><path d="M221,160.56a7,7,0,0,0,7.75-.12c2.7-2,2.19-5.37,1.08-8.16-.06-.14.13-.29.21-.15,1.54,2.46,1.61,6.19-.61,8.29s-6.21,2.09-8.65.47C220.54,160.76,220.76,160.42,221,160.56Z" style="fill:#263238"></path><path d="M214.86,177.86A4.75,4.75,0,1,1,220.6,173h0A4.76,4.76,0,0,1,216,178,4.63,4.63,0,0,1,214.86,177.86Zm1.84-8.67a4.22,4.22,0,0,0-1-.09,4.13,4.13,0,1,0,1,.09Z" style="fill:#455a64"></path><path d="M225.72,178.81c-1.78-.38-3-2.54-2.77-5a5.66,5.66,0,0,1,1.3-3.21,3,3,0,0,1,5.05.46,5.75,5.75,0,0,1,.69,3.4c-.24,2.61-2,4.59-4,4.41Zm1.37-8.74-.24,0a2.53,2.53,0,0,0-2.12,1,5,5,0,0,0-1.15,2.85c-.21,2.26.91,4.22,2.51,4.36s3.06-1.57,3.27-3.82a5.09,5.09,0,0,0-.61-3A2.6,2.6,0,0,0,227.09,170.07Z" style="fill:#455a64"></path><path d="M220.39,173.56,220,173c.78-.54,2.51-1.2,3.55.15l-.5.38C222.14,172.37,220.46,173.51,220.39,173.56Z" style="fill:#455a64"></path><path d="M199.2,172.82l-.53-.34c.16-.25,1.6-2.44,3-2.54s9.74,1.49,10.1,1.56l-.12.62c-2.41-.45-8.9-1.62-9.94-1.54S199.59,172.22,199.2,172.82Z" style="fill:#455a64"></path><path d="M204.79,173.52s-2.55-5.87-5.14-5.06-1.4,8.8,1.13,10.37a2.83,2.83,0,0,0,4-.73Z" style="fill:#ad6359"></path><path d="M200.05,170.74s-.07,0,0,.07c1.76,1.17,2.41,3.15,2.74,5.14a1.57,1.57,0,0,0-2.21-.89.06.06,0,0,0,0,.12,1.73,1.73,0,0,1,1.76,1,8,8,0,0,1,.59,1.7c.06.19.39.17.36-.05v0C203.83,175.33,202.63,171.52,200.05,170.74Z" style="fill:#263238"></path><path d="M201.07,169.26s-.48-8.51,2.06-13.18c2.83-5.2,14-8.56,21.78-2.87,0,0-12.39-3.91-18.42,3.28-2.54,3-2.58,13-2.58,13Z" style="fill:#c7c7c7"></path><ellipse cx="202.11" cy="173.64" rx="6.89" ry="7.85" style="fill:#c7c7c7"></ellipse><path d="M207,173.39c0,3.9-2.77,7.06-6.19,7.06s-6.19-3.16-6.19-7.06,2.77-7,6.19-7S207,169.49,207,173.39Z" style="fill:#FFC727"></path><path d="M308.35,226.68c.54.65,1,1.35.66,1.61h0c-.31.24-.92-.31-1.45-1Z" style="fill:#263238"></path><path d="M308.11,219.66c.56.68.65,5.48.41,7.23a.86.86,0,0,1-.79.67c-1.74-.11-6.47-1.12-7-1.8-.38-.46-1.24-2.53-2.28-4.55-1.35-2.65-24.16-31.83-24.25-32.29s.66-1.21,1.11-1.57,1.34-1,1.77-.8,24.69,28.16,27,30C305.87,218,307.73,219.2,308.11,219.66Z" style="fill:#37474f"></path><path d="M308.12,219.66a.79.79,0,0,1,.12.26,23.26,23.26,0,0,1-3.63,3.81A15.17,15.17,0,0,1,301,226a.79.79,0,0,1-.31-.21,3.11,3.11,0,0,1-.22-.33c1.22-.48,4.21-2,7.31-6.08A2.49,2.49,0,0,1,308.12,219.66Z" style="fill:#a6a6a6"></path><rect x="296.98" y="208.83" width="1.98" height="12.1" rx="0.73" transform="translate(-68.65 238.39) rotate(-39.47)" style="fill:#263238"></rect><rect x="298.45" y="212.33" width="1.15" height="7.68" rx="0.43" transform="translate(-69.23 239.4) rotate(-39.47)" style="fill:#a6a6a6"></rect><rect x="299.18" y="216.89" width="1.15" height="0.34" transform="translate(-69.62 239.99) rotate(-39.46)" style="fill:#263238"></rect><path d="M191.13,209.09c6.18,17.32,18.71,34.95,29.12,36.66s37.21-9.86,45.41-13.76c3.16-1.5-7.44-28.64-10.81-27-5.71,2.78-30.48,17-32.48,16.44-1.25-.34-12.18-8.62-21.37-17.28C189,192.88,189.2,203.7,191.13,209.09Z" style="fill:#ad6359"></path><path d="M299.82,200.17c.44,3.46-8.19,3.83-8.19,3.83a6.49,6.49,0,0,1,3,3.17c1,2.47-2.5,5.06-2.5,5.06a7.94,7.94,0,0,1,2.66,3.85c.68,2.46-2.44,5.57-2.44,5.57a7,7,0,0,1,.21,4.86c-1.55,4.2-8.24,5.59-12.48,6.52s-17.16-.41-19.64-.42l-6.2-27.19s17.85-9.58,23-10C281.6,195.14,299.15,194.88,299.82,200.17Z" style="fill:#ad6359"></path><path d="M291.55,203.91c-4.69-.76-9.56-.4-14.25,0a.08.08,0,0,0,0,.16c4.66-.45,9.55.33,14.22.07A.12.12,0,0,0,291.55,203.91Z" style="fill:#263238"></path><path d="M292,211.89a12.5,12.5,0,0,0-3.23.22c-1.14.15-2.28.33-3.41.52-2.26.38-4.52.82-6.76,1.32-.1,0-.09.18,0,.17,2.26-.38,4.53-.73,6.8-1,1.14-.15,2.27-.28,3.41-.4a15.12,15.12,0,0,0,3.21-.5A.17.17,0,0,0,292,211.89Z" style="fill:#263238"></path><path d="M292.28,221.66a8.71,8.71,0,0,0-2.9.35q-1.54.3-3.09.57c-2.06.37-4.12.74-6.19,1-.11,0-.09.18,0,.16,2.11-.29,4.22-.55,6.33-.86l3.1-.48a8.1,8.1,0,0,0,2.76-.67A.06.06,0,0,0,292.28,221.66Z" style="fill:#263238"></path><path d="M246.87,207.79l12.28,29.59s-30.8,12.06-40.31,9.23-22.63-22-26.89-33.42-3.16-21.07,11.39-8.21,18.53,15.61,19.45,15.44S246.87,207.79,246.87,207.79Z" style="fill:#FFC727"></path><g style="opacity:0.1"><path d="M203.71,205.32l-13.85-.25a11.74,11.74,0,0,1,0-3.15l9.91.18q1.62,1.18,3.55,2.89Z"></path><path d="M207.73,208.85q2,1.77,3.73,3.21l-20.05-.36c-.36-1.09-.67-2.15-.93-3.17Z"></path><path d="M248.93,212.75l-10.94-.2,5.7-3.05,3.92.07Z"></path><path d="M215.67,215.59c1.76,1.44,3.11,2.49,4.14,3.23l-25.6-.47c-.54-1.1-1-2.16-1.47-3.18Z"></path><path d="M251.69,219.4l-25.8-.47c1.58-.81,3.62-1.89,5.82-3.05l18.66.34Z"></path><path d="M254.45,226.06l-56.54-1c-.66-1.07-1.28-2.14-1.87-3.19l57.09,1Z"></path><path d="M257.21,232.71l-54.84-1c-.77-1-1.51-2.11-2.23-3.19l55.75,1Z"></path><path d="M259.15,237.39s-2,.77-5,1.87l-46.28-.84c-.93-1-1.85-2.08-2.76-3.2l53.59,1Z"></path><path d="M244.3,242.53c-3.49,1.08-7.24,2.14-10.84,3l-17.81-.33a28.5,28.5,0,0,1-4.29-3.23Z"></path></g><path d="M258.82,237.37c-4.65,1.71-9.3,3.37-14.06,4.76s-16.93,4.45-21.93,4.63a12.47,12.47,0,0,1-6.59-1.91,26.39,26.39,0,0,1-5.43-4.39c-1.7-1.7-3.31-3.49-4.9-5.29-1.82-2-3.57-4.15-5.32-6.26s-3.68-4.45-5.36-6.78c-.06-.08-.19,0-.14.08,1.47,2.08,2.87,4.2,4.38,6.25.62.84,1.26,1.67,1.91,2.49-.34-.25-.68-.51-1-.75-1.3-.9-2.64-1.76-3.89-2.73-.09-.07-.19.06-.1.12,1.28.91,2.46,1.94,3.65,2.94.59.49,1.18,1,1.78,1.44l.86.64.12.09,1.33,1.65c1.6,2,3.24,3.87,4.93,5.73a31.2,31.2,0,0,0,5.23,4.78,14.06,14.06,0,0,0,6.31,2.74c4.67.54,17.26-2.57,22.17-4A127.72,127.72,0,0,0,259,237.9C259.3,237.76,259.16,237.24,258.82,237.37Z" style="fill:#263238"></path><path d="M227.12,218.21c-.69.32-3.12,1.81-4,1.88a3.15,3.15,0,0,1-2.15-.87c-.66-.52-1.32-1.06-2-1.57l-2.51-1.91-.12-.17c-.12-.18-.25-.36-.38-.53l-.81-1c-.54-.66-1.1-1.3-1.65-1.95-.07-.07-.18,0-.11.12.55.67,1.06,1.38,1.57,2.09l.49.7-.4-.3c-.66-.5-2.75-2-4-3-.09-.07-.19,0-.09.12,1.17.91,3.76,3.18,4.48,3.79,1.4,1.2,2.81,2.38,4.25,3.53,1.09.86,2.26,2,3.77,1.63a18.31,18.31,0,0,0,3.78-2.3C227.39,218.3,227.23,218.16,227.12,218.21Z" style="fill:#263238"></path><path d="M248.29,224.74q-1.29-3.24-2.65-6.45c-.93-2.2-2-4.35-2.92-6.58,0-.09-.18,0-.14.07.9,2.21,1.56,4.53,2.39,6.76s1.64,4.34,2.5,6.49c1.74,4.34,3.46,8.73,5.49,12.94a.13.13,0,0,0,.23-.09C251.77,233.44,250,229.08,248.29,224.74Z" style="fill:#263238"></path></g><g id="freepik--Table--inject-2"><rect x="70.73" y="260.2" width="358.54" height="12.75" style="fill:#37474f"></rect><rect x="70.73" y="267.97" width="358.54" height="4.98" style="fill:#455a64"></rect><polygon points="83.59 451.85 78.44 451.85 93.44 272.95 106.59 272.95 83.59 451.85" style="fill:#455a64"></polygon><polygon points="106.59 272.95 105.05 284.92 92.44 284.92 93.44 272.95 106.59 272.95" style="fill:#263238"></polygon><polygon points="416.41 451.85 421.56 451.85 406.56 272.95 393.41 272.95 416.41 451.85" style="fill:#455a64"></polygon><polygon points="393.41 272.95 394.95 284.92 407.56 284.92 406.56 272.95 393.41 272.95" style="fill:#263238"></polygon></g><g id="freepik--Device--inject-2"><polygon points="370.81 260.2 281.75 260.2 303.38 200.77 392.44 200.77 370.81 260.2" style="fill:#263238"></polygon><polygon points="373.96 260.2 284.91 260.2 306.54 200.77 395.59 200.77 373.96 260.2" style="fill:#37474f"></polygon><polygon points="395.6 200.77 373.96 260.2 337.94 260.2 387.26 200.77 395.6 200.77" style="fill:#263238"></polygon><polygon points="389.83 260.2 378.99 260.2 369.26 243.35 380.1 243.35 389.83 260.2" style="fill:#455a64"></polygon><polygon points="369.26 243.35 369.26 260.2 378.99 260.2 369.26 243.35" style="fill:#37474f"></polygon><polygon points="329.03 260.2 318.19 260.2 308.47 243.35 319.31 243.35 329.03 260.2" style="fill:#455a64"></polygon><polygon points="308.47 243.35 308.47 260.2 318.19 260.2 308.47 243.35" style="fill:#263238"></polygon></g><g id="freepik--Lamp--inject-2"><polygon points="95.27 254.05 93.47 253.82 102.73 183.34 136.37 164.88 137.24 166.47 104.41 184.49 95.27 254.05" style="fill:#263238"></polygon><path d="M101,183.91a2.56,2.56,0,1,0,2.56-2.56A2.56,2.56,0,0,0,101,183.91Z" style="fill:#FFC727"></path><path d="M133.88,165.67a2.56,2.56,0,1,0,2.56-2.56A2.56,2.56,0,0,0,133.88,165.67Z" style="fill:#FFC727"></path><polygon points="153.65 168.02 141.62 181.45 136.07 174.59 132.69 170.41 141.71 160.35 146.23 163.25 153.65 168.02" style="fill:#FFC727"></polygon><polygon points="153.65 168.02 141.62 181.45 136.07 174.59 146.23 163.25 153.65 168.02" style="opacity:0.1"></polygon><polygon points="171.09 174.65 150.11 198.06 136.18 180.28 151.9 162.74 171.09 174.65" style="fill:#FFC727"></polygon><polygon points="110.84 260.2 79.8 260.2 81.7 250.45 108.94 250.45 110.84 260.2" style="fill:#FFC727"></polygon></g><g id="freepik--Coffee--inject-2"><polygon points="290.75 232.39 288.54 260.2 273.24 260.2 271.03 232.39 290.75 232.39" style="fill:#FFC727"></polygon><rect x="269.58" y="229.88" width="22.49" height="4.05" style="fill:#455a64"></rect><polygon points="290.53 229.88 271.12 229.88 272.26 225.32 289.39 225.32 290.53 229.88" style="fill:#37474f"></polygon><path d="M286.2,246.54c0,3.61-2.38,6.54-5.31,6.54s-5.31-2.93-5.31-6.54S278,240,280.89,240,286.2,242.93,286.2,246.54Z" style="fill:#fff"></path></g><g id="freepik--Camera--inject-2"><path d="M140.7,315.26c-6.54,0-11.72-2-15.41-5.88-7.85-8.31-7-23-6.56-30.91.07-1.33.14-2.47.14-3.27,0-4.14-1.13-7.41-2.32-10.88a42.83,42.83,0,0,1-2.1-7.63c-.69-4.43,1.13-10.4,3.2-13.39,1.59-2.3,5.06-1.86,5.21-1.84l-.27,2,.13-1-.13,1c-.66-.09-2.56-.08-3.3,1-1.82,2.64-3.45,8.19-2.87,12a42,42,0,0,0,2,7.28c1.19,3.47,2.43,7.06,2.43,11.53,0,.85-.07,2-.15,3.38-.43,7.6-1.24,21.74,6,29.43,3.3,3.49,8,5.25,14,5.25,4.53,0,8-1.33,10.7-4.08,6.83-7,6.4-22,6.12-31.85-.09-3.05-.16-5.68,0-7.63a40.86,40.86,0,0,1,2.32-10.11c1.57-4.83,2.93-9,1-14.34a3.09,3.09,0,0,0-3.23-1.95l-.25-2a5.06,5.06,0,0,1,5.36,3.26c2.14,6,.62,10.67-1,15.63a38.8,38.8,0,0,0-2.22,9.63c-.13,1.85-.06,4.43,0,7.43.29,10.22.74,25.66-6.69,33.31C149.81,313.69,145.73,315.26,140.7,315.26Z" style="fill:#a6a6a6"></path><rect x="121.86" y="238.4" width="35.88" height="21.8" style="fill:#263238"></rect><rect x="125.89" y="237.46" width="6.32" height="0.94" style="fill:#263238"></rect><rect x="127.06" y="236.54" width="3.99" height="0.94" style="fill:#263238"></rect><polygon points="150.86 238.4 141.32 238.4 142.32 235.46 149.86 235.46 150.86 238.4" style="fill:#263238"></polygon><rect x="143.68" y="236.64" width="4.82" height="1.76" style="fill:#fff"></rect><polygon points="120.94 241.29 120.94 243.03 121.86 243.34 121.86 244.08 120.37 243.57 120.37 240.75 121.86 240.24 121.86 240.98 120.94 241.29" style="fill:#263238"></polygon><polygon points="158.66 241.29 158.66 243.03 157.74 243.34 157.74 244.08 159.24 243.57 159.24 240.75 157.74 240.24 157.74 240.98 158.66 241.29" style="fill:#263238"></polygon><path d="M132.21,241.88a61.32,61.32,0,0,1,0,15.63,61.32,61.32,0,0,1,0-15.63Z" style="fill:#455a64"></path><path d="M146.09,258.59a8.9,8.9,0,1,1,8.9-8.9A8.9,8.9,0,0,1,146.09,258.59Zm0-17.29a8.4,8.4,0,1,0,8.4,8.39A8.39,8.39,0,0,0,146.09,241.3Z" style="fill:#37474f"></path><path d="M152.94,249.69a6.85,6.85,0,1,1-6.85-6.84A6.85,6.85,0,0,1,152.94,249.69Z" style="fill:#455a64"></path><circle cx="155.56" cy="240.24" r="0.72" style="fill:#FFC727"></circle></g><g id="freepik--trash-can--inject-2"><path d="M79,449.81c1.35.44,2.56,1.43,3.33.11s2.83-.93,3.6-1.21,1.85-2.51,1.8-3.2-.63-1.41-.63-2.07,0-1.63-.13-2.54A3,3,0,0,0,85.4,438a7,7,0,0,0-3.11-.5c-.89-.09-1.54-1.51-3.3-2.05s-4.08,1.43-4.28,2.22-.37,3.19-1,4.08-1.57.6-1.73,1.71-.1,2.95.23,3.28,1.18-.16,1.57.5.75,2.44,1.55,2.84S78,449.47,79,449.81Z" style="fill:#ebebeb"></path><polygon points="64.35 395.83 62.63 397.56 62.57 396.93 62.57 396.92 63.67 395.83 64.35 395.83" style="fill:#37474f"></polygon><polygon points="70.87 395.83 65.02 401.72 63.13 403.59 63.1 403.2 63.1 403.19 63.08 402.97 64.67 401.37 70.24 395.83 70.87 395.83" style="fill:#37474f"></polygon><polygon points="77.4 395.83 68.29 405 63.65 409.61 63.64 409.52 63.6 409.01 67.94 404.64 76.81 395.83 77.4 395.83" style="fill:#37474f"></polygon><polygon points="83.93 395.83 71.57 408.27 64.16 415.63 64.11 415.06 71.21 407.92 83.37 395.83 83.93 395.83" style="fill:#37474f"></polygon><path d="M90.43,395.83c-.88.91-1.77,1.81-2.66,2.71l-12.93,13L64.67,421.66l0-.54,9.86-9.93,13-12.92c.82-.82,1.65-1.63,2.48-2.44Z" style="fill:#37474f"></path><path d="M96.93,395.83q-2.94,3-5.89,6l-12.92,13L65.18,427.67l0-.5,12.62-12.7,13-12.93,5.8-5.71Z" style="fill:#37474f"></path><path d="M103.39,395.83q-4.52,4.65-9.08,9.26l-12.92,13L68.38,431c-.89.89-1.79,1.77-2.69,2.65l0-.42c.81-.84,1.64-1.67,2.46-2.5l12.93-13,13-12.92q4.56-4.51,9.16-9Z" style="fill:#37474f"></path><path d="M109.76,395.9v0q-6.06,6.24-12.17,12.42l-12.93,13-13,12.92-5.46,5.37,0-.33q2.6-2.65,5.22-5.31l12.92-13,13-12.92Q103.5,402,109.76,395.9Z" style="fill:#37474f"></path><path d="M109.17,403v0l0,.22h0q-4.14,4.23-8.29,8.44l-12.92,13-13,12.93q-4.09,4.05-8.23,8.08v0l0-.2q4-4.08,8-8.13l12.92-13,13-12.93Q104.87,407.15,109.17,403Z" style="fill:#37474f"></path><path d="M108.57,410l0,.44-4.39,4.46-12.93,13-13,12.92q-5.31,5.25-10.67,10.46h-.12q5.22-5.4,10.51-10.73l12.93-13,13-12.92Z" style="fill:#37474f"></path><path d="M108,417.09l0,.57-.51.52-12.92,13-13,12.92q-3.65,3.61-7.31,7.19h-.29q3.66-3.74,7.33-7.46l12.92-13,13-12.93Z" style="fill:#37474f"></path><path d="M107.36,424.22l0,.63-9.55,9.61-13,12.93-4,3.91h-.42q2.06-2.1,4.12-4.18l12.93-13Z" style="fill:#37474f"></path><path d="M106.76,431.34l-.06.69L101,437.74,88,450.66l-.65.64h-.52l.9-.91,12.92-13Z" style="fill:#37474f"></path><polygon points="106.15 438.47 106.09 439.22 104.31 441.01 93.95 451.3 93.38 451.3 103.95 440.66 106.15 438.47" style="fill:#37474f"></polygon><polygon points="105.55 445.62 105.55 445.65 105.49 446.37 100.53 451.3 99.91 451.3 105.55 445.62" style="fill:#37474f"></polygon><polygon points="109.68 396.92 109.62 397.57 107.9 395.83 108.58 395.83 109.68 396.92" style="fill:#37474f"></polygon><polygon points="109.17 402.97 109.11 403.59 107.23 401.72 101.37 395.83 102.01 395.83 107.58 401.37 109.17 402.97" style="fill:#37474f"></polygon><polygon points="108.65 409.01 108.61 409.52 108.6 409.62 103.95 405 94.84 395.83 95.44 395.83 104.31 404.64 108.65 409.01" style="fill:#37474f"></polygon><polygon points="108.14 415.07 108.09 415.64 100.68 408.27 88.32 395.83 88.87 395.83 101.03 407.92 108.14 415.07" style="fill:#37474f"></polygon><path d="M107.63,421.13l0,.53L97.41,411.55l-12.93-13c-.89-.9-1.78-1.8-2.66-2.71h.45c.83.81,1.66,1.62,2.48,2.44l13,12.92Z" style="fill:#37474f"></path><path d="M107.11,427.17l0,.5L94.13,414.82l-12.92-13q-3-3-5.89-6h.36l5.8,5.71,13,12.93Z" style="fill:#37474f"></path><path d="M106.6,433.25l0,.43-2.7-2.66-13-12.93-12.93-13q-4.55-4.62-9.07-9.26h.19q4.59,4.47,9.16,9l13,12.92,12.93,13Z" style="fill:#37474f"></path><path d="M106.08,439.33l0,.33c-1.83-1.77-3.65-3.57-5.47-5.37l-13-12.92-12.92-13q-6.12-6.18-12.17-12.42v0q6.25,6.08,12.44,12.19l13,12.92,12.92,13Q103.49,436.68,106.08,439.33Z" style="fill:#37474f"></path><path d="M105.57,445.42l0,.23q-4.14-4-8.23-8.08l-13-12.93-12.92-13q-4.15-4.2-8.29-8.44h0l0-.24q4.31,4.19,8.58,8.41l13,12.93,12.93,13Q101.6,441.34,105.57,445.42Z" style="fill:#37474f"></path><path d="M104.83,451.3h-.12Q99.36,446.1,94,440.84L81,427.92l-12.93-13-4.39-4.46,0-.44q2.35,2.31,4.7,4.63l13,12.92,12.92,13C97.83,444.13,101.35,447.7,104.83,451.3Z" style="fill:#37474f"></path><path d="M98.37,451.3h-.29q-3.67-3.58-7.31-7.19l-13-12.92-12.92-13-.51-.52,0-.56c.28.26.55.54.83.81l13,12.93,12.92,13Q94.71,447.56,98.37,451.3Z" style="fill:#37474f"></path><path d="M91.88,451.3h-.41q-2-1.95-4-3.91l-13-12.93-9.55-9.6,0-.64,10,9.89,12.93,13C89.14,448.51,90.52,449.9,91.88,451.3Z" style="fill:#37474f"></path><path d="M85.39,451.3h-.52l-.65-.64-13-12.92L65.55,432l-.06-.7,6.08,6,12.92,13Z" style="fill:#37474f"></path><polygon points="78.87 451.3 78.3 451.3 67.94 441.01 66.16 439.22 66.16 439.21 66.09 438.48 68.29 440.66 78.87 451.3" style="fill:#37474f"></polygon><polygon points="72.34 451.3 71.72 451.3 66.76 446.37 66.7 445.62 72.34 451.3" style="fill:#37474f"></polygon><rect x="64.51" y="395.82" width="1" height="55.59" transform="matrix(1, -0.09, 0.09, 1, -38.22, 7.66)" style="fill:#37474f"></rect><rect x="79.56" y="423.12" width="55.59" height="1" transform="translate(-324.32 491.65) rotate(-84.73)" style="fill:#37474f"></rect><rect x="59.56" y="389.77" width="53.04" height="8.98" style="fill:#263238"></rect><rect x="65.03" y="446.49" width="42.1" height="8.98" style="fill:#263238"></rect><path d="M103.43,443.11c1.6-.22,3.65-.22,3.76.69s-.61,1.4-.38,1.86a19.14,19.14,0,0,0,2.13,1.89,4.51,4.51,0,0,1,1.06,1.9c0,.23.38.61,0,1.06s-.59,1.14-.9,1.49-.45.72,0,1.32a3,3,0,0,1-.62,3c-.68.61-2.66-.83-3.26-.68s-.69.45-1.22.83a5.93,5.93,0,0,1-3.19,1.3c-1.36,0-2-1.22-2.88-1.75a11.2,11.2,0,0,0-2.35-.91,4.39,4.39,0,0,1-1.75-1.29c-.15-.31-.68-.38-.45-1.22s.6-1.06.6-1.74,0-.8,0-1.58-.61-2.14-.08-2.75.91-1.52,1.74-1.52,3.49.46,3.49.46a6.93,6.93,0,0,0,.76-1,2.21,2.21,0,0,1,1.84-1.06A5.68,5.68,0,0,0,103.43,443.11Z" style="fill:#f5f5f5"></path><path d="M94,450.82c1.09.5,2.19.95,3.3,1.38s2.21.91,3.32,1.32a31.58,31.58,0,0,0,3.34,1.08,2.49,2.49,0,0,0,.69.08l.67-.34a10.15,10.15,0,0,0,1.46-.89,4.06,4.06,0,0,0,1.1-1.13A2.39,2.39,0,0,0,108,452l0-.17,0-.08s0,0,0,0a1.24,1.24,0,0,0-.29-.51,16.47,16.47,0,0,0-2.6-2.27c-1-.7-1.93-1.37-2.94-2-.5-.33-1-.64-1.52-.93-.26-.15-.52-.29-.79-.42a2.87,2.87,0,0,0-.4-.18c-.13,0-.3-.15-.41,0,.1-.14.3-.06.43-.05s.29.08.44.12a7.67,7.67,0,0,1,.84.32c.56.23,1.11.48,1.65.74,1.07.55,2.11,1.14,3.14,1.79a14.11,14.11,0,0,1,2.89,2.3,2,2,0,0,1,.53,1.05,1.85,1.85,0,0,1,0,.23l0,.14-.08.26a2.65,2.65,0,0,1-.23.48,4.79,4.79,0,0,1-1.35,1.44,10.93,10.93,0,0,1-1.6,1l-.41.2-.2.1-.12.05-.22.07a2.92,2.92,0,0,1-1.08-.11,22.45,22.45,0,0,1-3.41-1.3A44.81,44.81,0,0,1,94,450.82Z" style="fill:#c7c7c7"></path><path d="M98.51,452.88a20.25,20.25,0,0,1,2-2.63c.36-.42.75-.8,1.14-1.2.19-.19.41-.37.63-.56a3.07,3.07,0,0,1,.8-.52.67.67,0,0,1,.15-.06,1.13,1.13,0,0,1,.32,0,.84.84,0,0,1,.41.22,2.62,2.62,0,0,1,.32.39,6.13,6.13,0,0,1,.45.72,14.59,14.59,0,0,1,.74,1.48,13,13,0,0,1,1,3.12l-1.72-2.76c-.29-.45-.56-.91-.86-1.35-.14-.22-.28-.44-.43-.63a1.38,1.38,0,0,0-.21-.25s0,0,.08,0a.17.17,0,0,0,.12,0l0,0a2.66,2.66,0,0,0-.56.36l-.6.49L101,450.8C100.22,451.51,99.4,452.22,98.51,452.88Z" style="fill:#c7c7c7"></path><path d="M78.33,459.46c-.86.2-2,.31-2.1-.19s.26-.8.12-1a10,10,0,0,0-1.27-.93,2.61,2.61,0,0,1-.68-1c0-.12-.23-.31-.05-.58s.27-.66.42-.86a.5.5,0,0,0-.07-.73,1.6,1.6,0,0,1,.19-1.65c.34-.37,1.49.32,1.82.21s.35-.29.62-.52a3.22,3.22,0,0,1,1.68-.87c.75-.07,1.19.56,1.67.8a6,6,0,0,0,1.34.38,2.38,2.38,0,0,1,1,.62c.1.16.39.17.31.64s-.28.62-.24,1,0,.44.08.86.44,1.15.18,1.51-.42.87-.88.92-1.93-.07-1.93-.07a4,4,0,0,0-.37.58,1.18,1.18,0,0,1-1,.67A3,3,0,0,0,78.33,459.46Z" style="fill:#f5f5f5"></path><path d="M75,454.58c.46-.49,1-.93,1.42-1.4l.37-.33.18-.16a.87.87,0,0,1,.37-.18,5.94,5.94,0,0,1,1.06-.14,11.12,11.12,0,0,1,2.07.12,3.4,3.4,0,0,1,1.11.34,1.13,1.13,0,0,1,.49.68,1.87,1.87,0,0,1,.08.64,6.78,6.78,0,0,1-.46,2.1,9.12,9.12,0,0,1-.45.95,4,4,0,0,1-.29.47,1.21,1.21,0,0,1-.56.43,5.06,5.06,0,0,1-2.13.14,13.37,13.37,0,0,1-2-.35c.67-.05,1.34-.06,2-.14a5.93,5.93,0,0,0,1.81-.36c.12-.06.09-.06.19-.19a3.73,3.73,0,0,0,.2-.4,6.49,6.49,0,0,0,.33-.87,5.64,5.64,0,0,0,.36-1.79.72.72,0,0,1,.23-.47,5.71,5.71,0,0,0-1.09-.25,13.23,13.23,0,0,0-1.89-.27,5.77,5.77,0,0,0-.93,0c-.06,0-.11,0-.09,0l-.21.14-.43.27C76.18,453.9,75.62,454.27,75,454.58Z" style="fill:#c7c7c7"></path><path d="M77.09,453.31c0,.63,0,1.25.06,1.81,0,.26.08.58.15.6s0,0,0,0h.06a1.61,1.61,0,0,0,.34,0c.54-.08,1.12-.24,1.71-.37a13.18,13.18,0,0,1,1.83-.3,7.46,7.46,0,0,1-3.38,1.66,3.26,3.26,0,0,1-.56,0,1.21,1.21,0,0,1-.39-.09.82.82,0,0,1-.36-.32,1.74,1.74,0,0,1-.16-1.18A4.6,4.6,0,0,1,77.09,453.31Z" style="fill:#c7c7c7"></path><path d="M71.08,446.44c-.44-1.35-.36-2.91-1.88-2.75s-2.43-1.73-3.11-2.18-3.11,0-3.65.45-.75,1.34-1.29,1.73-1.29,1-2,1.61a3,3,0,0,0-1.37,3,6.82,6.82,0,0,0,1.45,2.8c.45.77-.31,2.14.3,3.88s3.57,2.43,4.33,2.13,2.78-1.6,3.89-1.6,1.42.91,2.41.38,2.43-1.67,2.5-2.12-.83-.86-.53-1.57,1.52-2,1.37-2.93S71.43,447.47,71.08,446.44Z" style="fill:#f5f5f5"></path><path d="M68.27,443.53a42.16,42.16,0,0,0-5.47,2.19,2.76,2.76,0,0,0-.55.36c-.07,0-.12.34-.16.55-.08.48-.14,1-.19,1.45-.1,1-.17,2-.18,2.93a8.11,8.11,0,0,0,.08,1.41,1,1,0,0,0,.1.37,1.63,1.63,0,0,0,.53.17,15.9,15.9,0,0,0,2.86.14c.48,0,1-.05,1.42-.11s1-.21,1.43-.29c1-.2,1.94-.38,2.87-.62a4.56,4.56,0,0,0,.65-.2l.12,0h0a.15.15,0,0,0-.07.09.52.52,0,0,0,0,.36.38.38,0,0,0,.1.17s.06.06.06.05h0l-.13-.05c-.42-.14-.91-.26-1.38-.37l-2.89-.64c-1-.21-1.93-.43-2.9-.67-.49-.13-1-.25-1.46-.42a2.5,2.5,0,0,1-.82-.43l-.08-.1a.49.49,0,0,1-.07-.19,1.09,1.09,0,0,1,0-.18.9.9,0,0,1,.06-.27,1.94,1.94,0,0,1,.17-.41,12.86,12.86,0,0,1,1.88-2.41c.18-.18.36-.36.55-.53a3.61,3.61,0,0,1,.3-.25l.17-.12a.67.67,0,0,1,.25-.13.73.73,0,0,1,.56.14,2.13,2.13,0,0,1,.32.26,5.52,5.52,0,0,1,.53.56,39.17,39.17,0,0,1,3.23,5,45,45,0,0,0-3.6-4.68,4.81,4.81,0,0,0-.51-.5,1.12,1.12,0,0,0-.39-.25c.06,0,0,0-.07.06a.91.91,0,0,0-.13.1,2.77,2.77,0,0,0-.25.24c-.17.16-.34.34-.5.52A12.2,12.2,0,0,0,63,449.12a2.57,2.57,0,0,0-.11.27s0,.1,0,.09h0a.34.34,0,0,0,0-.1l0,0a2.67,2.67,0,0,0,.52.2c.44.14.92.26,1.39.38,1,.22,1.92.42,2.89.62l3.7.71c.49.11.17.1.69.26l.22.08a.76.76,0,0,1,.15.08.53.53,0,0,1,.13.11.62.62,0,0,1,.12.2.59.59,0,0,1,0,.41.83.83,0,0,1-.2.22.75.75,0,0,1-.14.08l-.23.11a6.47,6.47,0,0,1-.76.23c-1,.24-2,.41-2.94.59-.51.09-.91.19-1.48.28s-1,.08-1.53.09a14.35,14.35,0,0,1-3.05-.2,2.2,2.2,0,0,1-.86-.31.91.91,0,0,1-.34-.52,1.5,1.5,0,0,1-.09-.44A11.52,11.52,0,0,1,61,451c.06-1,.18-2,.32-3,.08-.49.16-1,.27-1.48.09-.25,0-.48.33-.81a2.86,2.86,0,0,1,.71-.43,24.87,24.87,0,0,1,2.82-1C66.35,444,67.3,443.73,68.27,443.53Z" style="fill:#c7c7c7"></path></g></svg>