<svg width="424" height="335"
    xmlns="http://www.w3.org/2000/svg">
    <g fill="none" fill-rule="evenodd">
        <g opacity=".09" fill="#000" fill-rule="nonzero">
            <path d="M250.01 179.6h-61.765v-55.856h61.764c16.23 0 29.936 12.788 29.936 27.928.057 15.426-13.42 27.927-29.936 27.927m0-73.517h-80.747v91.237h80.747c26.954 0 48.919-20.472 48.919-45.647.057-25.175-21.908-45.59-48.919-45.59M268.762 284.256h-80.861V228.4h80.861c16.516 0 29.936 12.501 29.936 27.927 0 15.369-13.42 27.928-29.936 27.928m0-73.575h-99.787v91.237h99.787c26.954 0 48.918-20.472 48.918-45.59 0-25.175-21.964-45.647-48.918-45.647"/>
            <path d="M268.762 315.337h-113.78V92.663h95.084c34.868 0 63.313 26.493 63.313 59.009a56.71 56.71 0 01-10.208 32.458l-10.15 14.852 14.853 10.896c15.37 11.297 24.201 28.214 24.201 46.45-.057 32.516-28.445 59.01-63.313 59.01m50.811-119.395l-1.32-.975.919-1.376c8.544-12.33 13.132-26.953 13.132-41.92 0-42.264-36.875-76.672-82.238-76.672H136v258h132.762C314.125 333 351 298.592 351 256.328c0-23.684-11.47-45.647-31.427-60.385"/>
        </g>

        <g fill="#F69044" fill-rule="nonzero">
            <path d="M245.066 174.622h-61.764v-55.867h61.764c16.23 0 29.936 12.791 29.936 27.934 0 15.372-13.42 27.933-29.936 27.933m0-73.59H164.32v91.257h80.746c26.954 0 48.919-20.477 48.919-45.658 0-25.123-21.965-45.6-48.919-45.6M263.762 279.245h-80.861v-55.867h80.861c16.516 0 29.936 12.504 29.936 27.933 0 15.43-13.42 27.934-29.936 27.934m0-73.591h-99.787v91.258h99.787c26.954 0 48.918-20.478 48.918-45.6 0-25.181-21.964-45.658-48.918-45.658"/>
            <path d="M263.762 310.333h-113.78V87.61h95.084c34.868 0 63.313 26.5 63.313 59.022a56.73 56.73 0 01-10.208 32.465l-10.15 14.856 14.853 10.899c15.37 11.3 24.201 28.22 24.201 46.46-.057 32.523-28.445 59.022-63.313 59.022m50.811-119.363l-1.32-.975.919-1.377a73.634 73.634 0 0013.132-41.93c0-42.273-36.875-76.688-82.238-76.688H131v258h132.762C309.125 328 346 293.585 346 251.311c0-23.689-11.47-45.657-31.427-60.341"/>
        </g>
    </g>
</svg>